<?xml version="1.0" standalone="no"?>
<!DOCTYPE svg PUBLIC "-//W3C//DTD SVG 20010904//EN"
 "http://www.w3.org/TR/2001/REC-SVG-20010904/DTD/svg10.dtd">
<svg version="1.0" xmlns="http://www.w3.org/2000/svg"
 width="691.000000pt" height="691.000000pt" viewBox="0 0 691.000000 691.000000"
 preserveAspectRatio="xMidYMid meet">
<metadata>
Created by potrace 1.14, written by Peter Selinger 2001-2017
</metadata>
<g transform="translate(0.000000,691.000000) scale(0.100000,-0.100000)"
fill="#000000" stroke="none">
<path d="M3125 6386 c-168 -26 -400 -83 -490 -121 -16 -7 -66 -28 -110 -46
-114 -48 -331 -195 -459 -312 -131 -119 -218 -240 -356 -497 -83 -155 -116
-240 -127 -330 -2 -19 -15 -78 -28 -130 -13 -52 -35 -162 -50 -245 -14 -82
-28 -157 -31 -166 -14 -46 -35 -526 -40 -894 l-6 -420 51 -590 c28 -324 53
-606 56 -625 5 -33 8 -67 25 -320 16 -226 21 -288 51 -675 29 -368 31 -425 26
-707 l-6 -308 423 0 423 0 7 200 6 200 35 67 c36 69 90 136 113 141 7 1 52 -5
101 -14 l88 -16 104 41 c67 26 116 52 134 71 16 16 45 41 65 55 52 36 112 142
150 264 29 95 31 110 25 188 -7 73 -12 92 -41 134 -29 43 -32 53 -22 74 l11
24 19 -36 c11 -20 18 -44 15 -53 -3 -13 2 -17 18 -17 13 0 49 -13 81 -27 60
-28 276 -63 319 -52 11 3 52 6 90 7 41 1 86 9 110 20 22 10 60 21 83 25 33 5
42 11 42 26 0 11 8 32 19 46 10 15 24 44 32 65 15 44 21 45 43 12 16 -24 15
-28 -30 -117 l-46 -91 7 -91 c7 -81 12 -101 55 -186 39 -77 62 -109 119 -163
77 -72 98 -83 79 -41 -15 33 -54 74 -92 100 -21 13 -44 49 -76 119 -39 82 -48
114 -54 178 -6 75 -4 81 29 147 19 38 39 71 44 74 10 6 51 -44 51 -62 0 -6 4
-12 9 -14 5 -1 44 -55 86 -118 42 -63 80 -117 82 -120 24 -22 -45 146 -71 173
-14 14 -133 183 -268 382 -53 77 -122 172 -152 210 -85 105 -236 333 -236 355
0 10 -4 22 -10 25 -6 3 -10 -4 -10 -18 0 -24 -141 -274 -233 -413 -26 -39 -47
-74 -47 -77 0 -5 -128 -240 -227 -417 -41 -73 -80 -143 -99 -177 -22 -39 -40
-123 -27 -123 5 0 26 35 48 78 22 42 66 126 99 185 l59 108 25 -37 c17 -26 27
-59 33 -113 9 -69 7 -85 -18 -168 -15 -50 -30 -90 -34 -87 -4 2 -5 -5 -2 -16
3 -11 1 -20 -5 -20 -5 0 -12 -8 -16 -17 -14 -44 -50 -91 -98 -130 -29 -24 -62
-52 -73 -62 -11 -11 -62 -35 -113 -54 l-93 -35 -112 21 c-62 11 -114 23 -117
26 -3 4 -22 15 -42 26 -21 11 -38 23 -38 27 0 5 -6 8 -14 8 -8 0 -21 6 -28 13
-7 6 -30 21 -51 32 -33 17 -168 141 -233 215 -12 14 -36 59 -53 100 -33 81
-34 75 9 214 13 42 70 132 105 167 93 91 118 108 174 119 81 17 108 31 46 25
-27 -3 -43 -2 -35 2 8 3 31 16 50 27 53 33 139 60 191 60 50 1 72 -10 51 -23
-7 -4 -65 -84 -128 -177 -64 -93 -121 -178 -129 -189 -8 -11 -16 -33 -20 -50
-4 -24 -4 -26 4 -9 5 12 23 31 39 43 16 11 45 44 63 73 18 29 37 56 42 59 5 3
8 9 7 13 -1 4 10 22 25 39 15 18 31 41 36 52 5 11 22 36 37 56 15 20 77 108
139 195 105 149 271 335 385 431 l37 32 -38 108 c-21 59 -49 151 -61 203 -12
52 -35 147 -51 210 -15 64 -28 125 -28 135 0 11 -5 48 -11 83 -11 58 -10 65
14 115 67 135 123 195 235 252 44 22 63 26 96 21 57 -7 149 -43 177 -67 l23
-20 -35 17 c-66 32 -137 43 -189 29 -68 -18 -150 -77 -191 -136 -19 -28 -44
-55 -55 -60 -16 -6 -13 -8 15 -8 31 0 39 6 71 52 83 118 211 153 335 89 34
-17 73 -45 88 -62 14 -17 26 -25 26 -18 0 43 140 128 210 128 77 0 196 -80
246 -165 29 -48 32 -50 74 -51 47 -1 44 2 81 -76 4 -9 4 -31 0 -50 -5 -18 -14
-58 -21 -88 -6 -30 -29 -109 -50 -175 -21 -66 -53 -167 -71 -225 -18 -58 -48
-134 -66 -169 -18 -35 -33 -67 -33 -71 0 -4 19 -20 43 -35 23 -16 92 -65 153
-111 97 -73 136 -112 320 -325 115 -134 226 -265 247 -293 20 -27 41 -52 45
-55 4 -4 38 -52 76 -108 l68 -102 -5 -88 -6 -88 15 88 15 88 -56 99 c-30 55
-63 106 -71 115 -9 8 -13 15 -9 15 9 0 -105 145 -163 208 -48 52 -48 53 -24
59 13 3 70 3 126 -1 149 -10 225 -40 310 -122 36 -36 66 -69 66 -74 0 -4 7
-21 15 -37 15 -29 38 -85 49 -116 3 -9 1 -41 -5 -70 -6 -28 -11 -59 -11 -67
-1 -15 -63 -112 -142 -221 -23 -31 -88 -95 -145 -142 -94 -77 -114 -89 -210
-123 -86 -31 -120 -38 -179 -38 -55 0 -67 -3 -48 -9 14 -5 26 -12 26 -17 0 -4
13 -6 29 -4 28 3 29 2 22 -24 -7 -23 3 -52 60 -166 l69 -138 -7 -169 -6 -169
335 0 c273 0 343 3 378 15 23 8 63 15 89 15 37 1 52 6 79 31 32 29 33 34 47
152 7 67 27 195 45 285 45 238 69 456 80 727 17 430 10 1237 -14 1555 -3 30
-7 109 -10 175 -4 66 -13 183 -21 260 -8 77 -22 208 -30 290 -27 257 -109 726
-166 945 -67 255 -124 449 -155 531 -19 52 -39 108 -43 124 -4 17 -25 72 -45
122 -174 435 -395 717 -711 909 -71 44 -148 87 -170 95 -22 9 -65 26 -95 39
-109 44 -187 69 -320 101 -134 32 -136 33 -425 35 -262 3 -305 1 -440 -20z
m-348 -1553 c-3 -10 -5 -2 -5 17 0 19 2 27 5 18 2 -10 2 -26 0 -35z m59 -372
l17 -74 161 7 c163 7 226 10 326 19 30 3 179 15 330 26 151 12 354 27 450 35
96 8 227 18 290 21 63 3 136 8 161 11 l47 6 7 81 8 82 15 -82 15 -83 173 0
c132 0 174 -3 174 -12 1 -7 5 -44 11 -83 9 -65 15 -342 21 -965 2 -247 1 -259
-25 -367 -73 -302 -160 -455 -364 -633 -68 -60 -155 -129 -194 -155 -86 -57
-217 -125 -239 -125 -9 0 -36 14 -58 30 -23 17 -46 30 -51 30 -22 0 -20 23 8
77 16 32 46 110 66 173 20 63 54 169 75 235 21 66 46 160 55 209 l16 89 -49
103 c-43 87 -59 109 -111 152 -123 103 -190 127 -313 111 -70 -9 -70 -9 -95
22 -57 67 -151 83 -219 37 -30 -20 -55 -28 -109 -31 -82 -7 -149 -33 -224 -90
-55 -43 -133 -148 -167 -227 -19 -43 -19 -49 -4 -155 9 -60 28 -155 42 -210
14 -55 36 -143 48 -195 12 -52 37 -137 56 -187 l35 -93 -38 -32 c-20 -18 -55
-50 -76 -71 l-39 -39 -61 22 c-82 29 -201 83 -205 92 -2 5 -8 8 -13 8 -5 0
-45 20 -88 45 -86 51 -223 178 -337 316 -86 102 -117 160 -198 369 -26 67 -48
205 -39 240 3 11 2 28 -2 37 -9 20 -11 40 -24 193 -5 58 -22 168 -39 245 -29
138 -71 507 -60 536 9 23 114 45 448 95 241 36 319 51 334 64 17 17 18 26 7
177 -17 235 -13 285 10 123 10 -74 26 -168 35 -209z m861 -1077 c36 -27 40
-39 20 -58 -11 -11 -18 -8 -41 15 -16 16 -45 34 -65 40 -31 11 -33 13 -16 20
37 14 68 9 102 -17z m514 -235 c17 -22 29 -43 26 -46 -12 -12 -37 7 -63 49
-16 24 -39 56 -53 72 l-26 30 42 -33 c23 -17 56 -50 74 -72z m-535 -1076 c13
-16 24 -33 24 -40 0 -6 6 -14 13 -16 6 -3 -18 -6 -55 -6 l-67 -1 24 36 c14 20
25 41 25 45 0 16 12 9 36 -18z m111 -160 c26 -38 66 -90 89 -118 23 -27 79
-104 124 -170 l82 -119 -12 -41 c-7 -22 -23 -61 -37 -87 -23 -42 -31 -48 -101
-74 -154 -56 -431 -43 -562 27 -55 29 -67 40 -83 79 l-19 45 77 138 c42 76 98
171 123 210 26 40 58 93 72 119 l25 47 75 4 c41 1 80 4 87 5 7 1 33 -28 60
-65z"/>
<path d="M4065 4459 c-97 -9 -186 -28 -202 -41 -7 -6 -13 -30 -13 -54 0 -56
16 -61 136 -39 139 24 385 45 547 45 89 0 147 4 147 10 0 12 -58 41 -138 69
-54 18 -82 21 -230 20 -92 -1 -203 -5 -247 -10z"/>
<path d="M3000 4363 c-54 -6 -220 -33 -270 -45 -58 -13 -68 -17 -173 -69 -109
-54 -229 -165 -149 -138 15 5 79 26 142 48 129 43 260 66 492 83 l156 12 6 29
c3 16 0 41 -7 56 -11 24 -17 26 -87 27 -41 1 -91 -1 -110 -3z"/>
<path d="M4380 4128 c-109 -10 -231 -49 -306 -98 -58 -39 -154 -143 -154 -167
0 -26 49 -26 83 -1 31 24 63 40 172 89 45 21 66 23 223 24 177 1 199 6 185 41
-8 20 -108 54 -161 54 -66 0 -197 -24 -261 -49 -30 -11 -50 -16 -45 -11 35 34
268 83 379 79 66 -2 75 0 75 16 0 25 -70 33 -190 23z"/>
<path d="M2620 3960 c-8 -5 -17 -7 -21 -4 -4 2 -13 -3 -20 -12 -17 -20 5 -36
41 -29 89 17 207 24 298 16 56 -4 105 -11 109 -14 3 -4 -54 -7 -128 -7 -138 0
-184 -8 -255 -41 -42 -20 -79 -58 -79 -82 0 -18 61 -20 87 -3 33 22 158 46
237 46 64 0 262 -22 315 -36 33 -8 66 4 66 24 -1 26 -119 101 -202 127 -68 22
-94 24 -255 24 -98 0 -185 -4 -193 -9z"/>
<path d="M3855 3161 c-11 -3 -38 -16 -60 -27 -43 -23 -83 -23 -100 0 -9 12
-13 9 -23 -13 -18 -40 -69 -40 -138 -1 -77 43 -113 40 -140 -12 -20 -39 -12
-69 24 -89 18 -10 35 -33 47 -65 10 -27 27 -61 38 -76 19 -26 75 -54 85 -43 3
3 1 5 -5 5 -15 0 -72 84 -88 131 -9 24 -14 41 -11 38 8 -8 91 -124 109 -151
10 -16 14 -28 10 -28 -5 0 -3 -4 2 -8 25 -17 55 -71 49 -89 -5 -15 -4 -15 5
-3 9 13 11 13 11 0 1 -8 9 1 20 21 15 29 30 40 77 57 65 24 88 48 123 131 15
34 33 57 51 67 75 38 -5 182 -86 155z m64 -57 c30 -38 26 -62 -12 -84 -23 -14
-38 -32 -45 -58 -15 -51 -65 -118 -104 -142 -18 -11 -34 -18 -36 -15 -2 2 14
34 36 72 23 37 60 110 83 161 23 50 45 92 50 92 4 0 17 -12 28 -26z m-298 -50
c33 -4 44 -1 55 14 10 15 22 18 58 15 24 -3 54 0 66 7 12 6 24 10 26 7 7 -6
-65 -158 -113 -239 l-40 -68 -54 81 c-66 98 -148 232 -149 241 0 3 25 -7 55
-23 30 -17 73 -32 96 -35z m-162 10 c12 -19 21 -37 21 -39 0 -2 -16 5 -35 16
-38 23 -41 29 -23 47 16 16 13 17 37 -24z"/>
<path d="M2543 1613 c9 -2 23 -2 30 0 6 3 -1 5 -18 5 -16 0 -22 -2 -12 -5z"/>
<path d="M4186 1253 c-6 -14 -5 -15 5 -6 7 7 10 15 7 18 -3 3 -9 -2 -12 -12z"/>
<path d="M5153 1204 c7 -8 -127 -188 -167 -225 -32 -30 -52 -38 -40 -16 4 6
-5 1 -19 -12 -29 -26 -34 -36 -14 -26 6 4 -10 -13 -36 -37 -37 -33 -67 -49
-128 -67 -43 -13 -79 -28 -79 -32 0 -13 12 -11 98 16 43 14 88 33 100 42 11
10 32 27 46 38 64 50 107 95 155 160 29 39 59 78 67 88 13 16 34 61 34 73 0 2
-5 4 -12 4 -6 0 -9 -3 -5 -6z"/>
<path d="M2368 1074 c-4 -5 1 -32 10 -59 8 -27 17 -45 19 -39 5 16 -23 109
-29 98z"/>
<path d="M2253 994 c38 -74 324 -292 364 -277 13 5 13 7 -1 15 -9 5 -16 16
-16 23 0 9 -10 15 -23 15 -13 0 -34 11 -46 24 -13 14 -29 22 -37 19 -8 -3 -14
0 -14 7 0 6 -4 8 -10 5 -5 -3 -47 29 -92 72 -46 42 -96 89 -112 103 l-28 25
15 -31z"/>
<path d="M4975 1010 c-3 -5 -1 -10 4 -10 6 0 11 5 11 10 0 6 -2 10 -4 10 -3 0
-8 -4 -11 -10z"/>
<path d="M2995 960 c-3 -5 -2 -10 4 -10 5 0 13 5 16 10 3 6 2 10 -4 10 -5 0
-13 -4 -16 -10z"/>
<path d="M2401 944 c0 -11 3 -14 6 -6 3 7 2 16 -1 19 -3 4 -6 -2 -5 -13z"/>
<path d="M2440 865 c13 -14 25 -25 27 -25 9 0 -33 49 -41 50 -5 0 1 -11 14
-25z"/>
<path d="M2887 833 c-4 -3 -7 -11 -7 -17 0 -6 5 -5 12 2 6 6 9 14 7 17 -3 3
-9 2 -12 -2z"/>
<path d="M2837 803 c-4 -3 -7 -11 -7 -17 0 -6 5 -5 12 2 6 6 9 14 7 17 -3 3
-9 2 -12 -2z"/>
<path d="M2640 750 c0 -5 9 -10 20 -10 11 0 20 5 20 10 0 6 -9 10 -20 10 -11
0 -20 -4 -20 -10z"/>
<path d="M2720 740 c0 -5 7 -10 15 -10 8 0 15 5 15 10 0 6 -7 10 -15 10 -8 0
-15 -4 -15 -10z"/>
<path d="M2645 710 c3 -5 10 -10 16 -10 5 0 9 5 9 10 0 6 -7 10 -16 10 -8 0
-12 -4 -9 -10z"/>
<path d="M4457 693 c22 -58 65 -110 115 -136 48 -26 51 -26 28 -5 -14 13 -37
32 -50 43 -38 30 -71 81 -64 99 4 11 0 16 -15 16 -15 0 -19 -4 -14 -17z"/>
<path d="M3648 674 c-5 -4 -8 -35 -8 -69 0 -43 -5 -66 -15 -75 -19 -16 -19
-30 0 -30 8 0 19 9 25 20 12 22 10 166 -2 154z"/>
<path d="M3447 664 c-9 -9 -9 -80 -1 -123 10 -49 27 -37 22 14 -3 25 -3 45 0
45 4 0 23 -19 43 -42 20 -24 39 -41 42 -38 5 4 10 102 8 138 -1 6 -5 12 -11
12 -5 0 -10 -24 -10 -52 l-1 -53 -22 28 c-12 15 -31 39 -42 53 -11 14 -24 22
-28 18z"/>
<path d="M3750 640 c-27 -27 -44 -94 -30 -120 24 -44 70 -51 105 -15 31 30 35
103 8 127 -30 25 -63 28 -83 8z m68 -22 c19 -19 14 -76 -8 -98 -36 -36 -70
-19 -70 35 0 57 46 95 78 63z"/>
<path d="M3286 634 c-9 -9 -16 -32 -16 -55 0 -31 7 -47 29 -70 48 -47 101 -30
101 32 0 78 -72 136 -114 93z m79 -45 c19 -36 16 -68 -7 -83 -25 -16 -68 28
-68 69 0 38 6 45 36 45 16 0 29 -10 39 -31z"/>
<path d="M3906 573 c-36 -74 -37 -92 -11 -119 26 -26 45 -24 83 10 25 22 52
67 52 86 0 20 -18 9 -30 -19 -16 -39 -54 -74 -77 -69 -26 5 -28 43 -4 89 22
42 26 59 13 59 -5 0 -16 -17 -26 -37z"/>
<path d="M3142 564 c-12 -8 -22 -19 -22 -24 0 -14 83 -140 92 -140 16 0 58 49
58 68 0 11 -11 31 -25 46 -14 15 -25 33 -25 40 0 28 -45 33 -78 10z m56 -29
c4 -16 -12 -34 -30 -35 -14 0 -20 43 -7 51 19 12 33 6 37 -16z m40 -47 c16
-16 15 -23 -4 -43 -12 -12 -19 -13 -30 -4 -8 6 -14 17 -14 23 0 13 20 36 30
36 3 0 11 -5 18 -12z"/>
<path d="M4048 456 c-32 -29 -58 -56 -58 -60 0 -13 31 -5 36 9 4 8 13 15 21
15 11 0 14 -10 11 -37 -2 -22 2 -38 10 -41 7 -2 12 5 12 17 0 14 11 27 35 38
19 9 37 25 40 34 9 26 -23 80 -45 78 -3 0 -31 -24 -62 -53z m85 5 c9 -35 -32
-61 -54 -35 -9 11 -8 18 6 34 23 25 41 26 48 1z"/>
<path d="M3498 336 c-45 -24 -49 -24 -84 -10 -63 26 -154 1 -192 -53 -46 -67
-33 -131 31 -152 92 -31 488 -35 662 -8 114 18 125 23 125 56 0 36 -54 117
-93 141 -42 26 -137 27 -178 3 -24 -14 -33 -15 -47 -5 -72 53 -157 63 -224 28z
m2 -78 c23 -38 24 -103 1 -103 -15 0 -53 102 -46 123 8 21 24 13 45 -20z m289
-41 c24 -49 22 -81 -5 -75 -15 3 -38 52 -51 106 -10 44 30 21 56 -31z"/>
</g>
</svg>
