<svg width="70" height="29" viewBox="0 0 70 29" fill="none" xmlns="http://www.w3.org/2000/svg">
<path d="M29.3711 27.375C29.3711 27.5182 29.3385 27.6549 29.2734 27.7852C29.013 27.9284 28.7396 28.026 28.4531 28.0781C28.1797 28.1432 27.9062 28.1758 27.6328 28.1758C27.5026 28.1758 27.3594 28.1693 27.2031 28.1562C27.0599 28.1562 26.9297 28.1432 26.8125 28.1172C26.7734 28.1042 26.7279 28.0781 26.6758 28.0391C26.6237 28 26.5716 27.9805 26.5195 27.9805C26.3893 27.9805 26.2656 28 26.1484 28.0391C26.0312 28.0911 25.9076 28.1172 25.7773 28.1172C25.7122 28.1172 25.6471 28.0977 25.582 28.0586C25.5299 28.0195 25.4714 27.9935 25.4062 27.9805C25.3151 27.9544 25.224 27.9479 25.1328 27.9609C25.0417 27.974 24.944 27.9805 24.8398 27.9805C24.6966 27.9805 24.5664 27.9609 24.4492 27.9219C24.3451 27.8828 24.2474 27.8112 24.1562 27.707C23.8307 27.668 23.5117 27.6029 23.1992 27.5117C22.8867 27.4336 22.5742 27.3424 22.2617 27.2383C21.9492 27.1471 21.6367 27.056 21.3242 26.9648C21.0117 26.8867 20.6927 26.8346 20.3672 26.8086C20.2891 26.7174 20.1979 26.6458 20.0938 26.5938C19.9896 26.5547 19.9115 26.4831 19.8594 26.3789C19.7943 26.3789 19.7487 26.3854 19.7227 26.3984C19.6966 26.4245 19.651 26.4375 19.5859 26.4375C19.3646 26.2552 19.1237 26.099 18.8633 25.9688C18.6159 25.8385 18.3555 25.7148 18.082 25.5977C17.8216 25.4805 17.5612 25.3568 17.3008 25.2266C17.0534 25.1094 16.819 24.9531 16.5977 24.7578H16.5C16.3958 24.7708 16.3047 24.7448 16.2266 24.6797C16.1615 24.6276 16.0768 24.6016 15.9727 24.6016C15.9076 24.6016 15.8555 24.6081 15.8164 24.6211C15.7773 24.5169 15.7188 24.4323 15.6406 24.3672C15.5625 24.3021 15.4779 24.237 15.3867 24.1719C15.3086 24.1198 15.2305 24.0612 15.1523 23.9961C15.0742 23.944 15.0156 23.8724 14.9766 23.7812C14.651 23.6641 14.332 23.5208 14.0195 23.3516C13.7201 23.1953 13.4531 22.987 13.2188 22.7266C12.9583 22.7005 12.7435 22.6224 12.5742 22.4922C12.4049 22.349 12.2487 22.1732 12.1055 21.9648C11.793 21.8607 11.5065 21.724 11.2461 21.5547C10.9857 21.3854 10.7253 21.2096 10.4648 21.0273C10.2174 20.8451 9.95052 20.6823 9.66406 20.5391C9.39062 20.3828 9.07812 20.2721 8.72656 20.207C8.71354 20.1159 8.67448 20.0508 8.60938 20.0117C8.54427 19.9596 8.46615 19.9206 8.375 19.8945C8.29688 19.8555 8.21875 19.8229 8.14062 19.7969C8.0625 19.7708 8.00391 19.7188 7.96484 19.6406C7.92578 19.6406 7.88672 19.6406 7.84766 19.6406C7.80859 19.6276 7.76953 19.6211 7.73047 19.6211C7.69141 19.6211 7.64583 19.6276 7.59375 19.6406C7.55469 19.6406 7.51562 19.6406 7.47656 19.6406L7.49609 19.582C7.49609 19.5299 7.47656 19.4974 7.4375 19.4844C7.41146 19.4714 7.3724 19.4583 7.32031 19.4453C7.26823 19.4323 7.22266 19.4128 7.18359 19.3867C7.14453 19.3607 7.125 19.3021 7.125 19.2109H7.06641C6.92318 19.2109 6.79297 19.1849 6.67578 19.1328C6.55859 19.0807 6.42839 19.0417 6.28516 19.0156C6.25911 19.1589 6.24609 19.2956 6.24609 19.4258V19.7773C6.24609 20.3633 6.3112 20.9818 6.44141 21.6328C6.57161 22.2708 6.77344 22.8438 7.04688 23.3516C7.32031 23.4557 7.55469 23.5924 7.75 23.7617C7.94531 23.931 8.13411 24.1263 8.31641 24.3477C8.32943 24.6992 8.19922 24.9922 7.92578 25.2266C7.66536 25.474 7.35938 25.5977 7.00781 25.5977C6.8125 25.5977 6.63021 25.5456 6.46094 25.4414C6.30469 25.3503 6.17448 25.2135 6.07031 25.0312C5.99219 25.0312 5.92057 25.0443 5.85547 25.0703C5.79036 25.1094 5.71224 25.1289 5.62109 25.1289C5.58203 25.1289 5.54297 25.1224 5.50391 25.1094C5.3737 24.888 5.24349 24.6927 5.11328 24.5234C4.99609 24.3542 4.91797 24.1263 4.87891 23.8398C4.73568 23.7747 4.64453 23.6576 4.60547 23.4883C4.57943 23.319 4.50781 23.1823 4.39062 23.0781C4.33854 22.4922 4.26693 21.9062 4.17578 21.3203C4.09766 20.7344 4.05859 20.1484 4.05859 19.5625C4.05859 19.4323 4.0651 19.3021 4.07812 19.1719C4.09115 19.0286 4.10417 18.8854 4.11719 18.7422C4.09115 18.6771 4.05208 18.6185 4 18.5664C3.96094 18.5013 3.92839 18.4362 3.90234 18.3711C3.64193 18.4362 3.36849 18.5013 3.08203 18.5664C2.80859 18.6185 2.52865 18.6445 2.24219 18.6445C2.0599 18.6445 1.83854 18.6185 1.57812 18.5664C1.31771 18.5013 1.11589 18.4167 0.972656 18.3125C0.86849 18.2474 0.796875 18.1302 0.757812 17.9609C0.705729 17.7786 0.679688 17.6224 0.679688 17.4922C0.679688 17.2708 0.71875 17.0495 0.796875 16.8281C0.875 16.5938 0.979167 16.3919 1.10938 16.2227C1.7474 15.9622 2.33984 15.6432 2.88672 15.2656C3.44661 14.888 3.99349 14.4779 4.52734 14.0352C4.54036 13.9049 4.5599 13.7747 4.58594 13.6445C4.625 13.5143 4.64453 13.3776 4.64453 13.2344C4.64453 13.0781 4.60547 12.9284 4.52734 12.7852C4.60547 12.707 4.64453 12.6094 4.64453 12.4922C4.64453 12.362 4.67708 12.2448 4.74219 12.1406V12.0234C4.74219 11.9714 4.73568 11.9193 4.72266 11.8672C4.72266 11.8151 4.70312 11.763 4.66406 11.7109C4.75521 11.2031 4.82682 10.7018 4.87891 10.207C4.93099 9.69922 4.95703 9.17839 4.95703 8.64453C4.95703 8.60547 4.97656 8.5013 5.01562 8.33203C5.06771 8.14974 5.10026 8.02604 5.11328 7.96094C5.16536 7.66146 5.19792 7.36849 5.21094 7.08203C5.23698 6.78255 5.26953 6.48307 5.30859 6.18359C5.32161 6.07943 5.34766 5.94271 5.38672 5.77344C5.42578 5.60417 5.44531 5.48698 5.44531 5.42188C5.44531 5.33073 5.42578 5.27214 5.38672 5.24609C5.36068 5.20703 5.33464 5.14844 5.30859 5.07031C5.38672 4.77083 5.42578 4.47135 5.42578 4.17188C5.4388 3.85938 5.46484 3.55339 5.50391 3.25391C5.72526 3.16276 5.90104 3.07161 6.03125 2.98047C6.16146 2.88932 6.35026 2.84375 6.59766 2.84375H6.63672C6.66276 3 6.72135 3.14974 6.8125 3.29297C6.90365 3.42318 6.99479 3.5599 7.08594 3.70312C7.1901 3.83333 7.28125 3.96354 7.35938 4.09375C7.4375 4.21094 7.47656 4.32812 7.47656 4.44531C7.47656 4.66667 7.45703 4.90755 7.41797 5.16797C7.37891 5.42839 7.34635 5.66927 7.32031 5.89062C7.25521 6.47656 7.19661 7.05599 7.14453 7.62891C7.09245 8.1888 7.01432 8.76172 6.91016 9.34766C6.94922 9.52995 6.96875 9.69922 6.96875 9.85547C6.96875 10.0898 6.94922 10.3242 6.91016 10.5586C6.87109 10.793 6.85156 11.0339 6.85156 11.2812C6.85156 11.3984 6.85807 11.5221 6.87109 11.6523C6.89714 11.7826 6.9362 11.8997 6.98828 12.0039C7.43099 11.8867 7.82812 11.6458 8.17969 11.2812C8.23177 11.2292 8.28385 11.1641 8.33594 11.0859C8.40104 10.9948 8.46615 10.9232 8.53125 10.8711C8.66146 10.7669 8.79818 10.6758 8.94141 10.5977C9.09766 10.5065 9.2474 10.4154 9.39062 10.3242C9.72917 10.1029 10.0547 9.875 10.3672 9.64062C10.6927 9.39323 11.0182 9.15234 11.3438 8.91797C12.3073 8.21484 13.2383 7.48568 14.1367 6.73047C15.0482 5.96224 15.9336 5.15495 16.793 4.30859C16.832 4.08724 16.9102 3.91146 17.0273 3.78125C17.1445 3.65104 17.2487 3.49479 17.3398 3.3125C17.5872 3.22135 17.8021 3.08464 17.9844 2.90234C18.0625 2.92839 18.1406 2.94792 18.2188 2.96094C18.3099 2.96094 18.3945 2.96094 18.4727 2.96094C18.5638 2.96094 18.6484 2.96745 18.7266 2.98047C18.8177 2.98047 18.8958 3 18.9609 3.03906C18.974 3.23438 18.9935 3.41016 19.0195 3.56641C19.0456 3.72266 19.1237 3.8724 19.2539 4.01562C19.2539 4.04167 19.2539 4.06771 19.2539 4.09375C19.2669 4.11979 19.2734 4.14583 19.2734 4.17188C19.2734 4.3151 19.2344 4.43229 19.1562 4.52344C19.0781 4.61458 19.0326 4.72526 19.0195 4.85547L18.0039 5.87109C17.6654 6.20964 17.3529 6.57422 17.0664 6.96484C16.9622 6.97786 16.8711 7.01042 16.793 7.0625C16.7148 7.11458 16.6367 7.17318 16.5586 7.23828C16.4935 7.29036 16.4219 7.34245 16.3438 7.39453C16.2656 7.44661 16.181 7.48568 16.0898 7.51172C15.8555 7.82422 15.5885 8.11068 15.2891 8.37109C14.9896 8.61849 14.6836 8.85938 14.3711 9.09375C14.0586 9.32812 13.7461 9.56901 13.4336 9.81641C13.1341 10.0508 12.8542 10.3112 12.5938 10.5977C12.3203 10.7279 12.0534 10.8841 11.793 11.0664C11.5456 11.2357 11.3438 11.4505 11.1875 11.7109H11.0898C11.0247 11.7109 10.9727 11.7305 10.9336 11.7695C10.8945 11.7956 10.8424 11.8086 10.7773 11.8086C10.0742 12.4206 9.34505 13 8.58984 13.5469C7.83464 14.0807 7.11198 14.6667 6.42188 15.3047V15.793C6.64323 15.9232 6.88411 16.0469 7.14453 16.1641C7.40495 16.2682 7.65885 16.3854 7.90625 16.5156C8.16667 16.6458 8.40755 16.7891 8.62891 16.9453C8.86328 17.0885 9.0651 17.2643 9.23438 17.4727C9.26042 17.4596 9.29297 17.4531 9.33203 17.4531C9.44922 17.4531 9.54036 17.4922 9.60547 17.5703C9.67057 17.6354 9.78125 17.6549 9.9375 17.6289C9.98958 17.8372 10.1068 17.987 10.2891 18.0781C10.4714 18.1693 10.6536 18.2474 10.8359 18.3125C10.9922 18.4688 11.1354 18.6185 11.2656 18.7617C11.3958 18.8919 11.5846 18.9766 11.832 19.0156C11.8581 19.0677 11.8776 19.1263 11.8906 19.1914C11.9036 19.2565 11.9297 19.3151 11.9688 19.3672C12.2161 19.4453 12.4505 19.556 12.6719 19.6992C12.9062 19.8424 13.1341 19.9922 13.3555 20.1484C13.5768 20.2917 13.7982 20.4349 14.0195 20.5781C14.2539 20.7083 14.5013 20.8125 14.7617 20.8906C14.8008 21.0208 14.8724 21.112 14.9766 21.1641C15.0938 21.2161 15.1849 21.2943 15.25 21.3984H15.6016C15.6406 21.4635 15.6927 21.5286 15.7578 21.5938C15.8229 21.6458 15.8685 21.724 15.8945 21.8281C15.9987 21.8542 16.1159 21.8932 16.2461 21.9453C16.3763 21.9844 16.4935 22.0365 16.5977 22.1016C16.6367 22.1406 16.6628 22.1862 16.6758 22.2383C16.7018 22.2904 16.7409 22.3359 16.793 22.375C16.8711 22.4401 16.9883 22.4922 17.1445 22.5312C17.3138 22.5573 17.457 22.6029 17.5742 22.668C17.8086 22.7982 18.0365 22.9414 18.2578 23.0977C18.4792 23.2669 18.7135 23.4232 18.9609 23.5664L19.7227 23.9766C19.8529 24.0417 19.9701 24.1133 20.0742 24.1914C20.1914 24.2695 20.3086 24.3411 20.4258 24.4062C20.6602 24.5104 20.9076 24.5755 21.168 24.6016C21.4414 24.6406 21.6888 24.7122 21.9102 24.8164C21.9753 24.8555 22.0208 24.901 22.0469 24.9531C22.0729 25.0182 22.1185 25.0703 22.1836 25.1094C22.2878 25.1745 22.4505 25.2201 22.6719 25.2461C22.8932 25.2721 23.0755 25.3177 23.2188 25.3828C23.401 25.4609 23.5768 25.5326 23.7461 25.5977C23.9284 25.6758 24.1107 25.7669 24.293 25.8711C24.6836 25.8971 25.0677 25.9427 25.4453 26.0078C25.8359 26.0729 26.2201 26.138 26.5977 26.2031C26.9753 26.2682 27.3529 26.3268 27.7305 26.3789C28.1211 26.431 28.5117 26.4505 28.9023 26.4375C28.9023 26.4635 28.9154 26.4766 28.9414 26.4766C28.9805 26.4896 29.013 26.4961 29.0391 26.4961C29.1302 26.6393 29.2083 26.7826 29.2734 26.9258C29.3385 27.069 29.3711 27.2188 29.3711 27.375ZM38.5898 11.5352C38.5898 11.7435 38.5508 11.9583 38.4727 12.1797C38.4076 12.401 38.3229 12.6029 38.2188 12.7852C38.0495 12.8112 37.8932 12.8698 37.75 12.9609C37.6198 13.0521 37.5156 13.1107 37.4375 13.1367C37.2682 13.1628 37.0664 13.1758 36.832 13.1758C36.6107 13.1628 36.4089 13.1628 36.2266 13.1758C35.875 13.2018 35.5234 13.2409 35.1719 13.293C34.8333 13.3451 34.4948 13.4102 34.1562 13.4883C34.1302 13.4883 34.1042 13.4948 34.0781 13.5078C34.0521 13.5078 34.0391 13.5208 34.0391 13.5469C34.0391 13.5729 34.0456 13.599 34.0586 13.625C34.0716 13.651 34.0781 13.6771 34.0781 13.7031C34.0781 13.7422 34.0391 13.7617 33.9609 13.7617C33.8177 13.7617 33.7201 13.7161 33.668 13.625C33.2513 13.7292 32.8346 13.8398 32.418 13.957C32.0013 14.0612 31.5846 14.1654 31.168 14.2695C30.9596 14.3086 30.7513 14.3477 30.543 14.3867C30.3477 14.4258 30.1458 14.4779 29.9375 14.543C29.8333 14.569 29.7292 14.6146 29.625 14.6797L29.3125 14.875C29.2474 14.862 29.1888 14.8555 29.1367 14.8555C29.0846 14.8424 29.0326 14.8359 28.9805 14.8359C28.7591 14.8359 28.5247 14.8815 28.2773 14.9727C28.0299 15.0508 27.8151 15.1615 27.6328 15.3047H27.4961C27.3659 15.3047 27.2747 15.2852 27.2227 15.2461C27.1055 15.2331 27.0339 15.2721 27.0078 15.3633C26.9818 15.4414 26.9362 15.513 26.8711 15.5781C26.4284 15.6172 25.9922 15.6953 25.5625 15.8125C25.1328 15.9297 24.7096 16.0599 24.293 16.2031C23.8763 16.3333 23.4531 16.4701 23.0234 16.6133C22.6068 16.7435 22.1836 16.8477 21.7539 16.9258C21.7018 17.1862 21.6758 17.4857 21.6758 17.8242C21.6758 18.0846 21.6953 18.3841 21.7344 18.7227C21.7865 19.0612 21.8906 19.3477 22.0469 19.582V19.6211C22.0469 19.6862 22.0208 19.7318 21.9688 19.7578C21.9167 19.7839 21.8906 19.8294 21.8906 19.8945C21.8906 20.2331 21.9232 20.5521 21.9883 20.8516C22.0664 21.151 22.1445 21.444 22.2227 21.7305C22.3008 22.0169 22.3724 22.3034 22.4375 22.5898C22.5156 22.8763 22.5547 23.1693 22.5547 23.4688C22.5547 23.5469 22.5482 23.6185 22.5352 23.6836C22.5352 23.7617 22.5286 23.8398 22.5156 23.918C22.5547 24.0352 22.6198 24.1328 22.7109 24.2109C22.8021 24.2891 22.8802 24.3802 22.9453 24.4844C22.9583 24.5495 22.9648 24.6081 22.9648 24.6602V24.8555C22.9648 25.0768 22.9388 25.2721 22.8867 25.4414C22.8346 25.6107 22.7695 25.7669 22.6914 25.9102C22.6133 26.0664 22.5286 26.2161 22.4375 26.3594C22.3464 26.5156 22.2617 26.6849 22.1836 26.8672C22.0534 26.8932 21.9492 26.9062 21.8711 26.9062C21.6758 26.9062 21.513 26.8542 21.3828 26.75C21.2656 26.6458 21.1615 26.5156 21.0703 26.3594C20.9792 26.2161 20.888 26.0664 20.7969 25.9102C20.7188 25.7539 20.6211 25.6237 20.5039 25.5195C20.5169 25.4544 20.5234 25.3958 20.5234 25.3438C20.5365 25.2917 20.543 25.2331 20.543 25.168C20.543 24.9076 20.4974 24.6536 20.4062 24.4062C20.3281 24.1589 20.237 23.9245 20.1328 23.7031C20.1198 23.2604 20.0742 22.8242 19.9961 22.3945C19.918 21.9648 19.8073 21.5417 19.6641 21.125C19.6901 20.9688 19.7096 20.819 19.7227 20.6758C19.7357 20.5195 19.7422 20.3698 19.7422 20.2266C19.7422 19.849 19.7227 19.4714 19.6836 19.0938C19.6445 18.7161 19.638 18.3385 19.6641 17.9609C19.625 17.8958 19.5859 17.8438 19.5469 17.8047C19.5078 17.7526 19.4753 17.694 19.4492 17.6289H19.3711C19.1758 17.6289 18.987 17.6484 18.8047 17.6875C18.6224 17.7135 18.4401 17.7266 18.2578 17.7266C18.1927 17.7266 18.1341 17.7266 18.082 17.7266C18.0299 17.7135 17.9714 17.7005 17.9062 17.6875C17.763 17.5443 17.6523 17.3815 17.5742 17.1992C17.4961 17.0169 17.457 16.8281 17.457 16.6328C17.457 16.3464 17.5352 16.0859 17.6914 15.8516C18.0169 15.7734 18.3359 15.6823 18.6484 15.5781C18.974 15.4609 19.2865 15.3242 19.5859 15.168C19.625 14.9727 19.6445 14.7773 19.6445 14.582C19.6576 14.3867 19.7292 14.2044 19.8594 14.0352C19.8203 13.931 19.7552 13.8398 19.6641 13.7617C19.5859 13.6706 19.5469 13.5664 19.5469 13.4492C19.5469 13.3841 19.5599 13.2995 19.5859 13.1953C19.7161 13.0521 19.8073 12.8698 19.8594 12.6484C19.9115 12.4271 19.957 12.1927 19.9961 11.9453C20.0352 11.6979 20.0742 11.4505 20.1133 11.2031C20.1654 10.9557 20.25 10.7344 20.3672 10.5391C20.3411 10.4349 20.3216 10.3242 20.3086 10.207C20.2956 10.0768 20.2891 9.95964 20.2891 9.85547C20.2891 9.69922 20.2956 9.54297 20.3086 9.38672C20.3346 9.21745 20.3737 9.0612 20.4258 8.91797C20.2826 8.7487 20.1654 8.55339 20.0742 8.33203C19.9831 8.09766 19.9375 7.86979 19.9375 7.64844C19.9375 7.21875 20.1458 6.94531 20.5625 6.82812C20.5495 6.77604 20.5365 6.73047 20.5234 6.69141C20.5234 6.65234 20.5234 6.61328 20.5234 6.57422C20.5234 6.45703 20.556 6.34635 20.6211 6.24219C20.6862 6.13802 20.7383 6.03385 20.7773 5.92969C20.7122 5.76042 20.6797 5.61719 20.6797 5.5C20.6797 5.39583 20.6992 5.30469 20.7383 5.22656C20.7773 5.13542 20.8099 5.03776 20.8359 4.93359C20.875 4.80339 20.901 4.6862 20.9141 4.58203C20.9401 4.47786 20.9792 4.38672 21.0312 4.30859C21.0833 4.23047 21.1484 4.17188 21.2266 4.13281C21.3177 4.09375 21.4544 4.07422 21.6367 4.07422C21.9232 4.07422 22.1966 4.16536 22.457 4.34766C22.7305 4.51693 22.9388 4.71224 23.082 4.93359C23.2253 4.92057 23.349 4.89453 23.4531 4.85547C23.5703 4.80339 23.6745 4.75781 23.7656 4.71875C23.8698 4.67969 23.974 4.64714 24.0781 4.62109C24.1953 4.58203 24.332 4.56901 24.4883 4.58203C24.5273 4.49089 24.5924 4.43229 24.6836 4.40625C24.7878 4.36719 24.8919 4.34115 24.9961 4.32812C25.1003 4.30208 25.1979 4.26953 25.2891 4.23047C25.3802 4.19141 25.4388 4.11979 25.4648 4.01562C25.5169 4.05469 25.5755 4.07422 25.6406 4.07422C25.7057 4.07422 25.7708 4.06771 25.8359 4.05469C25.901 4.02865 25.9727 4.01562 26.0508 4.01562C26.1289 4.01562 26.194 4.04167 26.2461 4.09375C26.5846 3.91146 26.9427 3.78125 27.3203 3.70312C27.7109 3.61198 28.0951 3.5599 28.4727 3.54688C29.3711 3.05208 30.3151 2.71354 31.3047 2.53125C32.3073 2.34896 33.3099 2.25781 34.3125 2.25781C34.4557 2.25781 34.5924 2.25781 34.7227 2.25781C34.8659 2.24479 35.0026 2.2513 35.1328 2.27734C35.276 2.30339 35.4323 2.34896 35.6016 2.41406C35.7839 2.47917 35.9596 2.55729 36.1289 2.64844C36.3112 2.73958 36.4805 2.84375 36.6367 2.96094C36.793 3.0651 36.9232 3.16276 37.0273 3.25391C37.1315 3.48828 37.1836 3.71615 37.1836 3.9375C37.1836 4.04167 37.1771 4.14583 37.1641 4.25C37.151 4.34115 37.1445 4.4388 37.1445 4.54297C37.1445 4.69922 37.1771 4.875 37.2422 5.07031C37.2031 5.05729 37.138 5.05078 37.0469 5.05078C36.9297 5.05078 36.832 5.07682 36.7539 5.12891C36.6758 5.18099 36.6042 5.23958 36.5391 5.30469C36.474 5.36979 36.4089 5.42839 36.3438 5.48047C36.2917 5.53255 36.2396 5.55859 36.1875 5.55859C36.0833 5.55859 35.9922 5.53906 35.9141 5.5C35.849 5.46094 35.7773 5.42188 35.6992 5.38281C35.6341 5.33073 35.5625 5.29167 35.4844 5.26562C35.4062 5.22656 35.3151 5.21354 35.2109 5.22656V5.14844C35.2109 5.00521 35.1654 4.91406 35.0742 4.875C34.9831 4.82292 34.9115 4.7513 34.8594 4.66016C34.6641 4.64714 34.4688 4.62109 34.2734 4.58203C34.0911 4.54297 33.9023 4.52344 33.707 4.52344C33.4466 4.52344 33.2448 4.61458 33.1016 4.79688C33.0365 4.77083 32.9779 4.73828 32.9258 4.69922C32.8867 4.66016 32.8281 4.64714 32.75 4.66016H32.6914C31.9883 4.66016 31.2982 4.73828 30.6211 4.89453C29.944 5.03776 29.2734 5.22005 28.6094 5.44141C27.9453 5.64974 27.2812 5.8776 26.6172 6.125C25.9531 6.3724 25.2891 6.58724 24.625 6.76953C24.4688 6.97786 24.306 7.13411 24.1367 7.23828C23.9674 7.32943 23.7982 7.40755 23.6289 7.47266C23.4727 7.53776 23.3164 7.60286 23.1602 7.66797C23.0039 7.73307 22.8672 7.83724 22.75 7.98047C22.6458 8.1237 22.5612 8.32552 22.4961 8.58594C22.444 8.83333 22.431 9.17839 22.457 9.62109C22.3919 9.69922 22.3529 9.78385 22.3398 9.875C22.3268 9.96615 22.3138 10.0573 22.3008 10.1484C22.2878 10.2266 22.2682 10.3047 22.2422 10.3828C22.2161 10.4609 22.1706 10.5326 22.1055 10.5977C22.1315 10.7279 22.151 10.8581 22.1641 10.9883C22.1771 11.1185 22.1836 11.2487 22.1836 11.3789C22.1836 11.9258 22.0924 12.4596 21.9102 12.9805C21.9753 13.0846 22.0078 13.2018 22.0078 13.332C22.0078 13.4753 21.9883 13.6055 21.9492 13.7227C21.9102 13.8398 21.8906 13.9701 21.8906 14.1133C21.8906 14.2565 21.9167 14.3737 21.9688 14.4648C22.0469 14.4648 22.0924 14.4909 22.1055 14.543H22.2227C22.457 14.543 22.6589 14.4844 22.8281 14.3672C22.9974 14.25 23.1797 14.1914 23.375 14.1914C23.4141 14.1914 23.4596 14.2044 23.5117 14.2305C23.5638 14.2565 23.6094 14.2695 23.6484 14.2695C23.7396 14.2695 23.7786 14.237 23.7656 14.1719C23.7526 14.1068 23.7852 14.0612 23.8633 14.0352L24.5664 13.918C25.0091 13.8398 25.4258 13.7487 25.8164 13.6445C26.2201 13.5273 26.6172 13.3581 27.0078 13.1367C27.099 13.1758 27.2031 13.1953 27.3203 13.1953C27.4245 13.1953 27.5352 13.1823 27.6523 13.1562C27.7695 13.1172 27.8802 13.0977 27.9844 13.0977C28.0755 13.0977 28.1471 13.1107 28.1992 13.1367C28.2773 13.0846 28.375 13.0456 28.4922 13.0195C28.6094 12.9805 28.6745 12.9023 28.6875 12.7852H28.7266C28.7786 12.7852 28.8177 12.7982 28.8438 12.8242C28.8698 12.8503 28.9089 12.8633 28.9609 12.8633H29.0391C29.3125 12.7331 29.5599 12.6354 29.7812 12.5703C30.1458 12.4792 30.5365 12.401 30.9531 12.3359C31.3698 12.2578 31.7409 12.1276 32.0664 11.9453C32.444 11.9453 32.8086 11.8867 33.1602 11.7695C33.5247 11.6393 33.8893 11.5742 34.2539 11.5742C34.4232 11.5742 34.5794 11.6003 34.7227 11.6523C34.8529 11.5612 35.0026 11.4961 35.1719 11.457C35.3542 11.418 35.5039 11.3464 35.6211 11.2422C35.6992 11.2552 35.7773 11.2682 35.8555 11.2812C35.9466 11.2812 36.0378 11.2812 36.1289 11.2812C36.5195 11.2812 36.8906 11.2292 37.2422 11.125C37.6068 11.0078 37.9779 10.9232 38.3555 10.8711C38.4466 10.9753 38.5052 11.0859 38.5312 11.2031C38.5703 11.3073 38.5898 11.418 38.5898 11.5352ZM51.5391 25.3242C51.5391 25.4805 51.4935 25.6107 51.4023 25.7148C51.3112 25.832 51.2005 25.9232 51.0703 25.9883C50.9401 26.0664 50.8034 26.1315 50.6602 26.1836C50.5169 26.2487 50.3932 26.3138 50.2891 26.3789C49.9896 26.3138 49.6771 26.2552 49.3516 26.2031C49.026 26.1641 48.7331 26.0794 48.4727 25.9492C47.9388 25.3633 47.5612 24.6862 47.3398 23.918C47.1315 23.1628 46.9948 22.4076 46.9297 21.6523C46.9036 21.431 46.8906 21.2161 46.8906 21.0078C46.8906 20.7865 46.8776 20.5651 46.8516 20.3438C46.8255 20.1484 46.7083 20.0312 46.5 19.9922C46.6562 19.9661 46.7669 19.888 46.832 19.7578C46.8971 19.6146 46.9362 19.4583 46.9492 19.2891C46.9622 19.1068 46.9622 18.931 46.9492 18.7617C46.9492 18.5794 46.9622 18.4297 46.9883 18.3125C46.8841 18.3516 46.793 18.4427 46.7148 18.5859C46.6367 18.7161 46.5651 18.8659 46.5 19.0352C46.4349 19.2044 46.3698 19.3737 46.3047 19.543C46.2526 19.6992 46.2005 19.8229 46.1484 19.9141C45.6016 20.8516 44.9635 21.7044 44.2344 22.4727C43.5182 23.2409 42.776 24.0026 42.0078 24.7578C41.7865 24.8359 41.5781 24.9336 41.3828 25.0508C41.1875 25.181 41.0052 25.3177 40.8359 25.4609C40.3411 25.6042 39.8724 25.6758 39.4297 25.6758C39.026 25.6758 38.6289 25.6172 38.2383 25.5C37.8477 25.3958 37.4961 25.2135 37.1836 24.9531L36.4609 23.3125C36.4219 23.2083 36.3763 23.1042 36.3242 23C36.2721 22.8828 36.2331 22.7721 36.207 22.668C36.181 22.5508 36.168 22.4271 36.168 22.2969C36.181 22.1536 36.1875 22.0299 36.1875 21.9258C36.1875 21.4701 36.2005 21.0143 36.2266 20.5586C36.2656 20.0898 36.3177 19.6276 36.3828 19.1719C36.4089 18.9896 36.4479 18.8008 36.5 18.6055C36.5521 18.4102 36.5911 18.2214 36.6172 18.0391V17.8242C36.6172 17.7591 36.6107 17.681 36.5977 17.5898C36.5846 17.4857 36.5456 17.4206 36.4805 17.3945C36.793 16.6393 36.9492 15.8516 36.9492 15.0312C36.9492 14.901 36.9427 14.7773 36.9297 14.6602C36.9297 14.5299 36.9232 14.3997 36.9102 14.2695C37.0013 14.1784 37.0599 14.0742 37.0859 13.957C37.112 13.8268 37.125 13.6966 37.125 13.5664C37.125 13.4232 37.125 13.2865 37.125 13.1562C37.138 13.026 37.1771 12.9023 37.2422 12.7852C37.2292 12.6419 37.2161 12.5052 37.2031 12.375C37.2031 12.2318 37.2031 12.0885 37.2031 11.9453C37.2031 11.0729 37.2682 10.2135 37.3984 9.36719C37.5417 8.50781 37.6133 7.64193 37.6133 6.76953V5.94922C37.6133 5.76693 37.6133 5.57812 37.6133 5.38281C37.6263 5.1875 37.6523 4.9987 37.6914 4.81641C37.7435 4.63411 37.8151 4.46484 37.9062 4.30859C37.9974 4.13932 38.1276 3.99609 38.2969 3.87891C38.3229 3.87891 38.3424 3.87891 38.3555 3.87891C38.3815 3.86589 38.4076 3.85938 38.4336 3.85938C38.5508 3.85938 38.6419 3.89193 38.707 3.95703C38.7721 4.00911 38.8698 4.02865 39 4.01562C39.2344 4.35417 39.4167 4.71224 39.5469 5.08984C39.6901 5.46745 39.7617 5.86458 39.7617 6.28125C39.7617 6.59375 39.7161 6.89974 39.625 7.19922C39.5339 7.4987 39.4883 7.8112 39.4883 8.13672C39.4883 8.26693 39.4948 8.39714 39.5078 8.52734C39.5208 8.65755 39.5273 8.78776 39.5273 8.91797C39.5273 9.04818 39.5078 9.17839 39.4688 9.30859C39.4427 9.42578 39.3841 9.52995 39.293 9.62109C39.319 9.88151 39.3385 10.1484 39.3516 10.4219C39.3646 10.6823 39.3711 10.9427 39.3711 11.2031C39.3711 11.9453 39.3255 12.6875 39.2344 13.4297C39.1432 14.1719 39.0391 14.9141 38.9219 15.6562C38.8047 16.3984 38.7005 17.1406 38.6094 17.8828C38.5182 18.625 38.4727 19.3737 38.4727 20.1289V20.6953C38.4727 20.8776 38.4857 21.0664 38.5117 21.2617C38.4336 21.444 38.3945 21.6393 38.3945 21.8477C38.3945 22.1341 38.4596 22.4141 38.5898 22.6875C38.7201 22.9609 38.8763 23.2083 39.0586 23.4297C39.1237 23.4427 39.1823 23.4492 39.2344 23.4492C39.2995 23.4622 39.3646 23.4688 39.4297 23.4688C39.7682 23.4688 40.0677 23.3971 40.3281 23.2539C40.6016 23.1107 40.8555 22.9349 41.0898 22.7266C41.3372 22.5182 41.5781 22.3034 41.8125 22.082C42.0469 21.8607 42.3008 21.6784 42.5742 21.5352C42.9909 21.0013 43.3815 20.4674 43.7461 19.9336C44.1107 19.3867 44.4622 18.8203 44.8008 18.2344C44.8268 17.9219 44.9049 17.6094 45.0352 17.2969C45.1784 16.9714 45.3216 16.6523 45.4648 16.3398C45.6211 16.0273 45.7578 15.7214 45.875 15.4219C46.0052 15.1224 46.0703 14.8359 46.0703 14.5625C46.0703 14.4193 46.0247 14.3216 45.9336 14.2695C46.0638 13.931 46.1615 13.5794 46.2266 13.2148C46.2917 12.8503 46.3438 12.4857 46.3828 12.1211C46.4349 11.7565 46.487 11.3984 46.5391 11.0469C46.5911 10.6823 46.6693 10.3242 46.7734 9.97266C46.7734 9.89453 46.7669 9.81641 46.7539 9.73828C46.7539 9.66016 46.7539 9.58203 46.7539 9.50391C46.7539 8.90495 46.8125 8.31901 46.9297 7.74609C47.0469 7.16016 47.1055 6.56771 47.1055 5.96875C47.1055 5.82552 47.0924 5.69531 47.0664 5.57812C47.0534 5.44792 47.0469 5.32422 47.0469 5.20703C47.0469 5.10286 47.0794 5.03776 47.1445 5.01172C47.2227 4.98568 47.2617 4.91406 47.2617 4.79688C47.2617 4.69271 47.2487 4.58203 47.2227 4.46484C47.2096 4.34766 47.2031 4.22396 47.2031 4.09375C47.2031 3.6901 47.2422 3.29297 47.3203 2.90234C47.3984 2.51172 47.4375 2.11458 47.4375 1.71094V1.47656C47.4375 1.38542 47.4245 1.30078 47.3984 1.22266C47.4896 1.07943 47.6133 0.988281 47.7695 0.949219C47.9258 0.897135 48.0755 0.871094 48.2188 0.871094C48.4531 0.871094 48.6484 0.897135 48.8047 0.949219C49.0521 1.61328 49.2604 2.29688 49.4297 3C49.599 3.6901 49.7357 4.39323 49.8398 5.10938C49.8659 5.27865 49.8984 5.46094 49.9375 5.65625C49.9896 5.83854 50.0156 6.02083 50.0156 6.20312C50.0156 6.24219 50.0026 6.28776 49.9766 6.33984C49.9635 6.39193 49.9505 6.44401 49.9375 6.49609C49.9245 6.60026 49.9115 6.70443 49.8984 6.80859C49.8984 6.91276 49.8984 7.01693 49.8984 7.12109C49.8984 7.43359 49.918 7.74609 49.957 8.05859C49.9961 8.37109 50.0156 8.6901 50.0156 9.01562C50.0156 9.38021 49.9635 9.73177 49.8594 10.0703C49.7682 10.3958 49.6966 10.7409 49.6445 11.1055C49.5924 11.4831 49.5729 11.8542 49.5859 12.2188C49.599 12.5833 49.5729 12.9544 49.5078 13.332C49.4818 13.4883 49.4427 13.6445 49.3906 13.8008C49.3385 13.944 49.3125 14.1003 49.3125 14.2695C49.3125 14.3867 49.319 14.5039 49.332 14.6211C49.3581 14.7383 49.3711 14.862 49.3711 14.9922C49.3711 15.1875 49.3255 15.3372 49.2344 15.4414C49.2604 15.5456 49.2799 15.6432 49.293 15.7344C49.306 15.8125 49.332 15.9036 49.3711 16.0078C49.306 16.0859 49.2604 16.1706 49.2344 16.2617C49.2083 16.3529 49.1953 16.4505 49.1953 16.5547C49.1953 16.6849 49.2018 16.8086 49.2148 16.9258C49.2279 17.0299 49.2344 17.1406 49.2344 17.2578C49.2344 17.5312 49.1888 17.7917 49.0977 18.0391C49.0195 18.2865 48.9674 18.5404 48.9414 18.8008C48.9284 18.9831 48.9219 19.1654 48.9219 19.3477C48.9349 19.5169 48.9414 19.6927 48.9414 19.875C48.9414 20.0703 48.9284 20.2591 48.9023 20.4414C48.8893 20.6237 48.8372 20.806 48.7461 20.9883C48.7721 21.0664 48.8047 21.1445 48.8438 21.2227C48.8828 21.3008 48.9414 21.3594 49.0195 21.3984C49.0195 21.8021 49.0716 22.2122 49.1758 22.6289C49.293 23.0326 49.4492 23.4167 49.6445 23.7812C49.6836 23.8594 49.7422 23.918 49.8203 23.957C49.8984 23.9961 49.9701 24.0352 50.0352 24.0742C50.1003 24.1263 50.1523 24.1849 50.1914 24.25C50.2305 24.3151 50.237 24.4128 50.2109 24.543C50.237 24.556 50.276 24.5625 50.3281 24.5625C50.4323 24.5625 50.5169 24.5365 50.582 24.4844C50.6602 24.4323 50.7513 24.4062 50.8555 24.4062H50.9922C51.1094 24.5234 51.2266 24.6602 51.3438 24.8164C51.474 24.9727 51.5391 25.1419 51.5391 25.3242ZM69.625 4.93359C69.5469 5.0638 69.4883 5.20052 69.4492 5.34375C69.4232 5.48698 69.4036 5.63021 69.3906 5.77344H69.2539C69.1497 5.77344 69.0586 5.76042 68.9805 5.73438C68.9023 5.69531 68.8112 5.66276 68.707 5.63672C68.7591 6.13151 68.7917 6.63281 68.8047 7.14062C68.8177 7.64844 68.8242 8.14974 68.8242 8.64453C68.8242 9.26953 68.8177 9.89453 68.8047 10.5195C68.7917 11.1315 68.7852 11.75 68.7852 12.375C68.7852 12.6745 68.7656 12.974 68.7266 13.2734C68.7005 13.5599 68.6224 13.8398 68.4922 14.1133C68.5182 14.3346 68.5378 14.5495 68.5508 14.7578C68.5638 14.9531 68.5703 15.1615 68.5703 15.3828C68.5703 15.9948 68.5312 16.6068 68.4531 17.2188C68.388 17.8177 68.3034 18.4167 68.1992 19.0156C68.1602 19.25 68.1211 19.4909 68.082 19.7383C68.056 19.9727 68.0104 20.2005 67.9453 20.4219C67.9193 20.487 67.8802 20.5521 67.8281 20.6172C67.7891 20.6823 67.7565 20.7474 67.7305 20.8125C67.5742 21.151 67.3984 21.4896 67.2031 21.8281C67.0208 22.1536 66.7995 22.4531 66.5391 22.7266C66.3438 22.7396 66.1549 22.7917 65.9727 22.8828C65.7904 22.974 65.6211 23.0195 65.4648 23.0195C65.3216 23.0195 65.2044 22.9479 65.1133 22.8047L64.918 22.8828C64.8529 22.9089 64.7812 22.9284 64.7031 22.9414C64.2604 22.7591 63.8372 22.5378 63.4336 22.2773C63.043 22.0169 62.7174 21.6784 62.457 21.2617H62.3789C62.2617 21.2617 62.1771 21.2357 62.125 21.1836C62.0599 21.1185 61.9883 21.0404 61.9102 20.9492C61.8451 20.8451 61.7865 20.7539 61.7344 20.6758C61.5781 20.4284 61.4089 20.181 61.2266 19.9336C61.0443 19.6862 60.8294 19.4779 60.582 19.3086C60.4779 18.918 60.3216 18.5859 60.1133 18.3125C59.9049 18.026 59.6901 17.7201 59.4688 17.3945C59.2995 16.7435 58.987 16.138 58.5312 15.5781C58.5964 15.513 58.6289 15.4674 58.6289 15.4414C58.6289 15.3763 58.6029 15.3242 58.5508 15.2852C58.5117 15.2331 58.4922 15.181 58.4922 15.1289C58.4922 15.0768 58.5052 15.0378 58.5312 15.0117C58.362 14.8294 58.2188 14.6276 58.1016 14.4062C57.9974 14.1719 57.8932 13.9375 57.7891 13.7031C57.6979 13.4688 57.5938 13.2344 57.4766 13C57.3724 12.7656 57.2422 12.5508 57.0859 12.3555C56.9427 12.4466 56.8516 12.5573 56.8125 12.6875C56.7865 12.8177 56.7734 12.9544 56.7734 13.0977C56.7734 13.2018 56.7734 13.306 56.7734 13.4102C56.7865 13.5143 56.793 13.6185 56.793 13.7227C56.793 13.9831 56.7604 14.237 56.6953 14.4844C56.6432 14.7318 56.6042 14.9857 56.5781 15.2461C56.5651 15.4284 56.5586 15.6302 56.5586 15.8516C56.5716 16.0729 56.5651 16.2943 56.5391 16.5156C56.526 16.737 56.4935 16.9518 56.4414 17.1602C56.3893 17.3685 56.2982 17.5443 56.168 17.6875C56.0898 18.4297 55.9922 19.1719 55.875 19.9141C55.7578 20.6562 55.6471 21.3984 55.543 22.1406C55.5169 22.2708 55.4909 22.4336 55.4648 22.6289C55.4388 22.8242 55.4062 23.0195 55.3672 23.2148C55.3411 23.4232 55.3151 23.6185 55.2891 23.8008C55.276 23.9961 55.2695 24.1523 55.2695 24.2695C55.2695 24.3997 55.3021 24.5234 55.3672 24.6406C55.4323 24.7708 55.4648 24.8945 55.4648 25.0117C55.4648 25.1029 55.4323 25.1549 55.3672 25.168C55.3151 25.194 55.2826 25.2461 55.2695 25.3242C55.3607 25.6107 55.4062 25.9362 55.4062 26.3008C55.4062 26.4049 55.3997 26.5091 55.3867 26.6133C55.3737 26.7305 55.3542 26.8411 55.3281 26.9453C55.3021 27.0104 55.2565 27.069 55.1914 27.1211C55.1263 27.1862 55.0938 27.2448 55.0938 27.2969C55.0938 27.349 55.1198 27.388 55.1719 27.4141C55.0938 27.4922 54.9961 27.5443 54.8789 27.5703C54.7617 27.5964 54.6771 27.668 54.625 27.7852C54.4948 27.681 54.3646 27.5833 54.2344 27.4922C54.1042 27.4141 53.9805 27.3229 53.8633 27.2188L53.8047 27.1992C53.7135 27.1992 53.6354 27.2253 53.5703 27.2773C53.5182 27.3424 53.4466 27.375 53.3555 27.375C53.3294 27.375 53.3034 27.3685 53.2773 27.3555C53.2643 27.3555 53.2448 27.3555 53.2188 27.3555L53.1016 26.8477C53.0625 26.6784 53.0104 26.5221 52.9453 26.3789C53.0495 26.1055 53.1146 25.793 53.1406 25.4414C53.1797 25.1029 53.2188 24.7578 53.2578 24.4062C53.2969 24.0547 53.3555 23.7161 53.4336 23.3906C53.5117 23.0781 53.6549 22.8047 53.8633 22.5703C53.8633 22.4661 53.8242 22.3945 53.7461 22.3555C53.681 22.3164 53.6484 22.2318 53.6484 22.1016C53.6484 22.0755 53.6549 22.0299 53.668 21.9648C53.694 21.8997 53.7135 21.8281 53.7266 21.75C53.7526 21.6719 53.7721 21.6003 53.7852 21.5352C53.8112 21.457 53.8307 21.3984 53.8438 21.3594C53.9479 20.8516 54.026 20.3307 54.0781 19.7969C54.1432 19.263 54.306 18.7682 54.5664 18.3125C54.5534 18.2604 54.5469 18.1823 54.5469 18.0781C54.5469 17.8568 54.5664 17.6419 54.6055 17.4336C54.6576 17.2253 54.6836 17.0104 54.6836 16.7891C54.6836 16.6068 54.6641 16.4375 54.625 16.2812C54.6641 16.138 54.7161 16.0013 54.7812 15.8711C54.8594 15.7279 54.8984 15.5846 54.8984 15.4414C54.8984 15.3112 54.8529 15.2201 54.7617 15.168C54.8268 15.1159 54.8659 15.0573 54.8789 14.9922C54.9049 14.9271 54.918 14.862 54.918 14.7969C54.931 14.7318 54.944 14.6732 54.957 14.6211C54.9831 14.556 55.0352 14.5039 55.1133 14.4648C55.1003 14.3346 55.0872 14.2109 55.0742 14.0938C55.0742 13.9766 55.0742 13.8529 55.0742 13.7227C55.0742 13.2409 55.1003 12.7656 55.1523 12.2969C55.2044 11.8151 55.2305 11.3268 55.2305 10.832C55.2305 10.3503 55.1914 9.88151 55.1133 9.42578L55.3281 8.99609C55.1979 8.89193 55.1133 8.72266 55.0742 8.48828C55.0352 8.25391 55.0091 8 54.9961 7.72656C54.9831 7.45312 54.957 7.1862 54.918 6.92578C54.8919 6.65234 54.8203 6.43099 54.7031 6.26172V6.08594C54.7031 5.8776 54.6901 5.67578 54.6641 5.48047C54.638 5.28516 54.625 5.08984 54.625 4.89453V4.71875C54.6901 4.69271 54.7357 4.64714 54.7617 4.58203C54.8008 4.51693 54.8268 4.45182 54.8398 4.38672H54.918C55.0742 4.38672 55.2305 4.3737 55.3867 4.34766C55.543 4.32161 55.6992 4.30859 55.8555 4.30859H56.1094C56.2656 4.42578 56.4023 4.5625 56.5195 4.71875C56.6367 4.875 56.7799 5.01823 56.9492 5.14844V5.5C57.0664 5.65625 57.1576 5.82552 57.2227 6.00781C57.2878 6.1901 57.3529 6.37891 57.418 6.57422C57.4961 6.76953 57.5742 6.95833 57.6523 7.14062C57.7305 7.32292 57.8411 7.47917 57.9844 7.60938C57.9583 7.73958 57.9453 7.84375 57.9453 7.92188C57.9453 8.09115 57.9583 8.26042 57.9844 8.42969C58.0234 8.59896 58.0495 8.76172 58.0625 8.91797C58.1146 8.98307 58.1602 9.06771 58.1992 9.17188C58.2383 9.26302 58.3034 9.32161 58.3945 9.34766C58.4596 9.85547 58.5898 10.3372 58.7852 10.793C58.9935 11.2487 59.1432 11.724 59.2344 12.2188C59.3385 12.3229 59.4167 12.4531 59.4688 12.6094C59.5208 12.7526 59.5729 12.8958 59.625 13.0391C59.6901 13.1823 59.7552 13.319 59.8203 13.4492C59.8984 13.5664 60.0091 13.651 60.1523 13.7031C60.2305 14.0156 60.3281 14.3281 60.4453 14.6406C60.5625 14.9531 60.7448 15.2201 60.9922 15.4414C60.9922 15.7018 61.0312 15.9297 61.1094 16.125C61.2005 16.3073 61.2982 16.4831 61.4023 16.6523C61.5195 16.8086 61.6237 16.9648 61.7148 17.1211C61.806 17.2773 61.8646 17.4466 61.8906 17.6289C62.0729 17.9023 62.2812 18.1562 62.5156 18.3906C62.763 18.625 63.0104 18.8529 63.2578 19.0742C63.5182 19.2826 63.7721 19.4974 64.0195 19.7188C64.2669 19.9401 64.4948 20.1745 64.7031 20.4219C64.8464 20.4349 64.9635 20.4674 65.0547 20.5195C65.1589 20.5586 65.276 20.5911 65.4062 20.6172C65.4974 20.5521 65.569 20.474 65.6211 20.3828C65.6862 20.2786 65.7448 20.1745 65.7969 20.0703C65.849 19.9661 65.901 19.8685 65.9531 19.7773C66.0182 19.6732 66.0964 19.582 66.1875 19.5039C66.1875 19.4779 66.181 19.4583 66.168 19.4453C66.168 19.4193 66.168 19.3932 66.168 19.3672C66.168 19.224 66.1875 19.1133 66.2266 19.0352C66.2786 18.944 66.3372 18.8464 66.4023 18.7422V18.2344C66.5065 18.0391 66.5781 17.8307 66.6172 17.6094C66.6562 17.388 66.6758 17.1667 66.6758 16.9453C66.6758 16.763 66.6693 16.5807 66.6562 16.3984C66.6432 16.2031 66.6367 16.0078 66.6367 15.8125C66.6367 15.6953 66.6432 15.5781 66.6562 15.4609C66.6693 15.3307 66.6953 15.2135 66.7344 15.1094C66.7604 15.0833 66.806 15.0443 66.8711 14.9922C66.9362 14.9271 66.9688 14.888 66.9688 14.875C66.9688 14.8099 66.9492 14.7448 66.9102 14.6797C66.8711 14.6146 66.8516 14.5495 66.8516 14.4844C66.8516 14.3932 66.8906 14.3216 66.9688 14.2695V14.1523C66.9688 14.0872 66.9557 14.0286 66.9297 13.9766C66.9167 13.9115 66.8776 13.8659 66.8125 13.8398C66.8776 13.7617 66.9232 13.6706 66.9492 13.5664C66.9753 13.4492 66.9883 13.332 66.9883 13.2148C67.0013 13.0846 67.0013 12.9609 66.9883 12.8438C66.9883 12.7266 66.9883 12.6159 66.9883 12.5117C66.9883 12.3945 66.9948 12.2708 67.0078 12.1406C67.0208 12.0104 67.0729 11.8997 67.1641 11.8086C67.125 11.6523 67.099 11.5026 67.0859 11.3594C67.0729 11.2031 67.0664 11.0469 67.0664 10.8906C67.0664 10.6172 67.0794 10.3438 67.1055 10.0703C67.1315 9.79688 67.1445 9.51693 67.1445 9.23047C67.1445 9.1263 67.138 9.02214 67.125 8.91797C67.112 8.80078 67.1055 8.6901 67.1055 8.58594C67.1055 8.48177 67.125 8.4362 67.1641 8.44922C67.2161 8.44922 67.2422 8.41667 67.2422 8.35156C67.2422 8.26042 67.2292 8.16927 67.2031 8.07812C67.1901 7.98698 67.1771 7.89583 67.1641 7.80469C67.138 7.58333 67.1185 7.36198 67.1055 7.14062C67.0924 6.90625 67.0859 6.67188 67.0859 6.4375C67.0859 6.29427 67.0859 6.15104 67.0859 6.00781C67.099 5.85156 67.125 5.70182 67.1641 5.55859C67.0859 5.44141 67.0339 5.33073 67.0078 5.22656C66.9948 5.10938 66.9818 5.00521 66.9688 4.91406L66.9297 4.62109C66.9167 4.51693 66.8776 4.41276 66.8125 4.30859C66.7995 4.29557 66.793 4.25651 66.793 4.19141C66.793 4.08724 66.819 4.00911 66.8711 3.95703C66.806 3.73568 66.7148 3.52083 66.5977 3.3125C66.4935 3.10417 66.4284 2.8763 66.4023 2.62891C66.2591 2.55078 66.1484 2.42708 66.0703 2.25781C66.0052 2.07552 65.9727 1.91276 65.9727 1.76953C65.9727 1.60026 66.0182 1.4375 66.1094 1.28125C66.2005 1.11198 66.3438 1.02734 66.5391 1.02734C66.6172 1.02734 66.6888 1.05339 66.7539 1.10547C66.832 1.14453 66.9036 1.19661 66.9688 1.26172C67.0469 1.3138 67.1185 1.36589 67.1836 1.41797C67.2617 1.45703 67.3398 1.47656 67.418 1.47656C67.4701 1.47656 67.5482 1.46354 67.6523 1.4375C67.7956 1.63281 67.9388 1.8151 68.082 1.98438C68.2383 2.14062 68.3945 2.30339 68.5508 2.47266C68.5508 2.69401 68.5898 2.89583 68.668 3.07812C68.7461 3.26042 68.8307 3.4362 68.9219 3.60547C69.013 3.76172 69.0911 3.91797 69.1562 4.07422C69.2344 4.23047 69.2669 4.39974 69.2539 4.58203C69.2799 4.67318 69.332 4.73828 69.4102 4.77734C69.4883 4.81641 69.5599 4.86849 69.625 4.93359Z" fill="#9B6D86"/>
</svg>
